<svg width="78" height="78" xmlns="http://www.w3.org/2000/svg" xmlns:xlink="http://www.w3.org/1999/xlink" xml:space="preserve" overflow="hidden"><g transform="translate(-146 -182)"><g><g><g><g><path d="M173.336 219.976 184.979 231.619 196.622 219.976 197.413 219.185 196.294 218.065 195.502 218.857 185.784 228.575C185.781 228.579 185.776 228.578 185.773 228.575 185.771 228.574 185.77 228.572 185.77 228.57L185.77 197.25 184.187 197.25 184.187 228.57C184.187 228.574 184.183 228.578 184.179 228.578 184.177 228.578 184.175 228.577 184.174 228.575L174.455 218.857 173.663 218.065 172.544 219.185Z" fill="#7F7E7D" fill-rule="nonzero" fill-opacity="1"/><path d="M206.375 243.167 163.625 243.167 163.625 227.333 162.042 227.333 162.042 244.75 207.958 244.75 207.958 227.333 206.375 227.333 206.375 243.167Z" fill="#7F7E7D" fill-rule="nonzero" fill-opacity="1"/></g></g></g></g></g></svg>